<svg xmlns="http://www.w3.org/2000/svg" xmlns:xlink="http://www.w3.org/1999/xlink" width="100" height="100" viewBox="0 0 100 100">
    <defs>
        <path id="a" d="M.125.091h68.836v60.925H.125z"/>
    </defs>
    <g fill="none" fill-rule="evenodd">
        <g transform="translate(22 19)">
            <mask id="b" fill="#fff">
                <use xlink:href="#a"/>
            </mask>
            <path fill="#C7B57A" d="M54.882 19.762c-.058 1.795-.045 3.605-.034 5.356.031 4.624.061 8.991-1.058 13.391l-.296 1.162 1.176.034c.152.005.303.007.452.007 3.935 0 6.937-1.57 8.923-4.666 2.298-3.581 2.394-7.426.278-11.12-1.825-3.185-4.67-4.897-8.458-5.088l-.952-.048-.031.972zm-30.19 41.254c-4.318 0-8.22-.687-11.93-2.1-1.104-.42-2.243-.977-3.484-1.702-.468-.274-.786-.67-.893-1.112-.1-.408-.022-.832.223-1.226.297-.478.735-.73 1.265-.73.348 0 .724.113 1.087.327 3.034 1.792 6.512 2.79 10.944 3.14 1.156.091 2.29.137 3.37.138 4.341 0 8.163-.728 11.682-2.224 6.57-2.795 11.043-8.113 13.293-15.807 1.125-3.846 1.573-7.892 1.37-12.369l-.081-1.798-1.415 1.075c-6.726 5.11-14.78 7.595-24.621 7.595-1.52 0-3.126-.058-4.774-.174-6.103-.426-11.433-1.915-16.292-4.552A26.697 26.697 0 0 1 1.45 27.59c-.695-.508-.859-1.444-.38-2.177.307-.469.802-.749 1.325-.749.298 0 .58.09.836.266 6.008 4.13 13.101 6.053 22.322 6.053h.229c6.31-.021 11.855-1.188 16.95-3.568 2.617-1.221 4.67-2.664 6.278-4.409 1.807-1.96 2.723-4.14 2.65-6.301-.073-2.15-1.125-4.243-3.042-6.054-2.747-2.594-6.191-4.366-10.84-5.578-4.441-1.158-8.835-1.745-13.057-1.745A44.858 44.858 0 0 0 8.052 6.53c-1.66.662-3.189 1.627-4.667 2.56l-.399.252c-.488.307-.97.47-1.393.47-.484 0-.864-.208-1.16-.636-.576-.83-.334-1.753.647-2.47 3.412-2.494 7.475-4.228 12.422-5.303 4.013-.87 7.983-1.313 11.8-1.313 5.662 0 11.209.974 16.486 2.893 4.819 1.753 8.154 4.01 10.495 7.103.782 1.032 1.358 2.328 1.914 3.58l.296.663c.383.847.92 1.23 1.793 1.283 3.16.19 6.17 1.499 8.477 3.684a13.377 13.377 0 0 1 4.107 8.212c.753 6.764-3.198 12.993-9.395 14.812-1.29.379-2.679.458-4.15.543-.458.026-.932.053-1.398.09-.759.06-1.522.265-1.973 1.346-2.08 4.982-5.08 8.893-8.92 11.625-3.709 2.637-8.324 4.265-13.719 4.838a43.944 43.944 0 0 1-4.623.253z" mask="url(#b)"/>
        </g>
        <path fill="#C7B57A" d="M76.068 39.15c-.057 1.808-.045 3.627-.033 5.387.03 4.41.06 8.96-1.03 13.304l-.468 1.866 1.862.055c.156.004.31.006.464.006 4.092 0 7.22-1.663 9.295-4.944 2.397-3.79 2.497-7.858.29-11.766-1.907-3.377-4.876-5.191-8.823-5.392l-1.508-.077-.049 1.56zM46.751 80c-4.206 0-8.003-.677-11.61-2.071-1.064-.411-2.165-.957-3.365-1.669-.331-.196-.552-.465-.621-.755-.06-.25-.006-.528.15-.784.19-.309.453-.465.782-.465.247 0 .522.087.797.251 3.077 1.844 6.593 2.87 11.065 3.228 1.157.092 2.293.14 3.377.14 4.372 0 8.223-.745 11.775-2.277 6.662-2.874 11.195-8.336 13.473-16.233 1.13-3.923 1.582-8.046 1.378-12.606l-.129-2.888-2.24 1.727c-6.556 5.053-14.416 7.509-24.03 7.509a66.61 66.61 0 0 1-4.686-.173c-5.877-.416-11.226-1.931-15.898-4.503a25.801 25.801 0 0 1-2.893-1.874c-.446-.33-.546-.918-.237-1.397.2-.31.516-.495.848-.495.18 0 .358.058.516.168 6.041 4.212 13.159 6.174 22.399 6.174h.226c6.328-.022 11.89-1.21 17.005-3.633 2.656-1.258 4.744-2.748 6.386-4.555 1.892-2.083 2.85-4.413 2.772-6.74-.077-2.315-1.18-4.555-3.187-6.478-2.79-2.672-6.274-4.494-10.966-5.735-4.441-1.174-8.835-1.77-13.06-1.77a44.378 44.378 0 0 0-16.695 3.255c-1.69.683-3.225 1.666-4.709 2.617l-.394.252c-.39.249-.775.386-1.086.386-.298 0-.505-.118-.694-.395-.488-.713.008-1.307.51-1.679 3.313-2.456 7.265-4.165 12.084-5.227C39.727 20.44 43.617 20 47.354 20a46.44 46.44 0 0 1 16.127 2.87c4.663 1.72 7.883 3.925 10.132 6.939.734.983 1.29 2.252 1.827 3.48l.042.095.252.573c.464 1.041 1.178 1.556 2.247 1.621a12.753 12.753 0 0 1 8.043 3.546 12.912 12.912 0 0 1 3.889 7.884c.714 6.51-3.027 12.502-8.897 14.25-1.216.362-2.623.444-3.984.523-.46.027-.93.054-1.395.092-.534.043-1.782.143-2.422 1.7-2.016 4.899-4.92 8.742-8.633 11.42-3.591 2.59-8.07 4.19-13.314 4.756a42.343 42.343 0 0 1-4.517.251z"/>
        <path fill="#C7B57A" d="M12.36 76.69h10.914l-.937-13.674h-8.9L12.36 76.69zM11.964 80c-.504 0-.916-.005-1.297-.017-.56-.017-1.006-.193-1.292-.51-.282-.314-.409-.77-.367-1.321.462-6.18.864-11.335 1.262-16.224.148-1.813.551-2.18 2.398-2.181h3.503v-2.074l-.006-5.013c-.004-4.139-.008-8.278-.017-12.417-.006-3.163 1.555-5.739 4.075-6.722a7.726 7.726 0 0 1 2.82-.521c2.078 0 4.048.806 5.268 2.155.968 1.07 1.518 2.385 1.681 4.023.082.815-.505 1.579-1.309 1.704a1.998 1.998 0 0 1-.304.023c-.78 0-1.385-.48-1.58-1.254-.026-.107-.048-.23-.07-.362-.038-.218-.08-.464-.162-.719-.499-1.545-1.625-2.297-3.442-2.297-.121 0-.245.003-.374.01-1.77.088-2.81.933-3.177 2.585-.122.547-.179 1-.18 1.43-.004 5.607.003 11.307.01 16.82v.993c0 .157.012.302.025.47l.02.274.057.892h.893l1.066-.002.978-.002c.397 0 .788.001 1.18.007 1.18.016 1.769.562 1.85 1.717.253 3.588.502 7.176.75 10.764l.349 5.055c.014.215.029.437.059.669.059.448.05 1.074-.33 1.51-.37.424-.964.516-1.398.519-1.386.009-2.894.013-4.745.013l-3.141-.003-3.144-.002c-.32 0-.64.002-.96.004-.317.002-.633.004-.95.004z"/>
        <path fill="#C7B57A" d="M12.187 76.827h12.23l-1.022-14.865H13.362l-1.175 14.865zM12.41 79c-.5 0-.91-.005-1.289-.016-.28-.009-.664-.072-.89-.323-.223-.247-.246-.625-.225-.898.466-6.193.87-11.364 1.272-16.272.124-1.52.279-1.66 1.841-1.66h4.104v-2.654l-.007-5.571c-.004-3.972-.008-7.944-.016-11.915-.006-2.931 1.426-5.31 3.737-6.207a7.233 7.233 0 0 1 2.63-.484c1.935 0 3.76.738 4.881 1.973.889.979 1.395 2.191 1.547 3.708a1.02 1.02 0 0 1-1.052 1.102c-.517 0-.903-.308-1.033-.824a4.732 4.732 0 0 1-.061-.316c-.042-.242-.088-.51-.184-.805-.58-1.793-1.931-2.702-4.014-2.702-.131 0-.266.004-.406.01-2.048.102-3.304 1.125-3.732 3.042a7.087 7.087 0 0 0-.194 1.56c-.005 5.642.002 11.355.008 16.88l.002.989c0 .182.013.35.026.515l.02.268.092 1.43h1.438c.348 0 .687 0 1.02-.002h.077l.962-.002c.397 0 .788.002 1.18.007.898.013 1.237.324 1.299 1.19.255 3.598.504 7.197.754 10.795l.352 5.074c.014.214.03.455.063.705.062.47-.008.847-.196 1.063-.18.206-.527.32-.978.324a736.42 736.42 0 0 1-4.775.013c-1.049 0-2.097-.001-3.146-.003h-.219l-2.965-.002c-.322 0-.645.002-.968.004h-.04c-.305.002-.61.004-.915.004z"/>
    </g>
</svg>
