<svg xmlns="http://www.w3.org/2000/svg" xmlns:xlink="http://www.w3.org/1999/xlink" width="100" height="100" viewBox="0 0 100 100">
    <defs>
        <path id="a" d="M0 .003h43.94V50H0z"/>
        <path id="c" d="M.152.19h43.77v49.807H.152z"/>
    </defs>
    <g fill="none" fill-rule="evenodd">
        <path fill="#C7B57A" d="M49.34 8.377c-1.435 2.138-2.836 4.133-4.14 6.19-3.918 6.175-7.436 12.557-9.496 19.636-1.641 5.64-1.981 11.317.108 16.922 1.913 5.13 5.31 8.763 10.765 10.093 1.098.268 2.246.334 3.637.53-2.814-4.038-3.995-8.307-4.465-12.8-.777-7.432.238-14.714 1.924-21.932.182-.78.602-1.24 1.43-1.112.717.11 1.031.792.843 1.693-.333 1.595-.706 3.183-.992 4.786-1.113 6.236-1.62 12.495-.478 18.786.617 3.403 1.72 6.617 3.852 9.406.492.644.971.867 1.81.662 6.094-1.493 10.18-6.642 10.495-13.224.205-4.271-.686-8.326-2.444-12.162-4.04-8.82-8.179-17.597-12.28-26.39-.15-.32-.328-.625-.57-1.084M32 42.837c.062-5.841 1.785-11.25 4.108-16.5C39.355 19 43.578 12.248 48.374 5.848c.894-1.193 1.799-1.13 2.427.206 4.599 9.779 9.233 19.542 13.733 29.367 1.825 3.982 2.628 8.233 2.44 12.66-.355 8.324-6.233 14.912-14.151 15.784-9.274 1.022-16.658-3.82-19.527-12.85a26.934 26.934 0 0 1-.929-3.992c-.215-1.38-.252-2.79-.367-4.187"/>
        <g transform="translate(7 46)">
            <mask id="b" fill="#fff">
                <use xlink:href="#a"/>
            </mask>
            <path fill="#C7B57A" d="M2.35 4.12c0 .614-.016.968.002 1.32.154 3.042.225 6.092.492 9.125.508 5.758 1.45 11.445 3.538 16.877 2.454 6.384 6.525 11.417 12.785 14.507 3.448 1.703 7.086 2.24 10.868 1.28 2.103-.534 3.987-1.5 5.72-2.972-.214-.066-.297-.11-.383-.116-3.903-.283-7.353-1.72-10.441-4.052-4.134-3.121-6.984-7.236-9.223-11.807-.64-1.308-1.191-2.662-1.747-4.01-.266-.645.01-1.164.62-1.442.63-.286 1.167-.064 1.497.523.22.394.357.833.534 1.25 1.968 4.641 4.411 8.981 8.22 12.415 3.602 3.247 7.757 5.137 12.742 4.776.396-.029.904-.25 1.136-.552 1.772-2.305 2.756-4.916 2.805-7.828.07-4.297-1.683-7.858-4.62-10.905-3.2-3.322-7.245-5.245-11.52-6.805C17.322 12.767 9.03 10.295 2.348 4.119M24.811 50c-4.18-.084-8.893-2.452-12.975-6.217-4.643-4.282-7.403-9.644-9.024-15.644C.442 19.36-.205 10.404.053 1.362.066.902.404.262.783.061c.311-.165 1.097.047 1.35.353 3.524 4.273 8.176 6.935 13.2 9 3.98 1.637 8.054 3.048 12.085 4.562 4.875 1.832 9.323 4.326 12.553 8.495 4.18 5.397 5.265 11.294 2.26 17.583-2.885 6.04-9.363 10.008-17.42 9.945" mask="url(#b)"/>
        </g>
        <g transform="translate(51 45)">
            <mask id="d" fill="#fff">
                <use xlink:href="#c"/>
            </mask>
            <path fill="#C7B57A" d="M41.672 4.556l-.259-.092c-4.806 4.491-10.725 6.982-16.778 9.228-2.498.927-5.014 1.805-7.508 2.743-3.945 1.485-7.527 3.539-10.392 6.679C2.443 27.817 1.34 34.022 4.08 39.15c1.682 3.149 1.204 2.767 4.713 2.69.388-.008.779-.063 1.163-.126 4.849-.805 8.553-3.462 11.633-7.104 2.728-3.227 4.625-6.93 6.188-10.814.293-.73.763-1.14 1.577-.9.698.205.939.921.602 1.766-1.456 3.645-3.23 7.122-5.642 10.247-3.228 4.181-7.164 7.399-12.425 8.736-1.117.284-2.27.425-3.55.658 2.403 1.939 5.023 3.089 8.02 3.333 4.256.347 8.035-.994 11.464-3.377 5.186-3.603 8.476-8.564 10.395-14.486 1.845-5.692 2.69-11.558 3.105-17.494.18-2.57.236-5.149.349-7.723m2.237 1.667c-.091 7.441-.795 14.811-2.767 22.024-1.908 6.981-5.322 13.014-11.246 17.439-3.657 2.731-7.738 4.419-12.386 4.306-7.247-.176-12.461-3.785-15.622-10.033-3.096-6.12-1.866-12.003 2.22-17.328 2.982-3.888 7.05-6.363 11.572-8.125 4.417-1.722 8.898-3.286 13.29-5.067 4.182-1.695 8.075-3.908 11.282-7.143.547-.551.989-1.216 1.58-1.709.324-.269.927-.482 1.28-.363.347.117.742.678.761 1.062.083 1.642.036 3.29.036 4.937" mask="url(#d)"/>
        </g>
    </g>
</svg>
