<svg xmlns="http://www.w3.org/2000/svg" xmlns:xlink="http://www.w3.org/1999/xlink" width="400" height="400" viewBox="0 0 400 400">
    <defs>
        <path id="a" d="M0 .734h3v61.487H0z"/>
    </defs>
    <g fill="none" fill-rule="evenodd">
        <path fill="#C7B57A" d="M175.5 390c-.83 0-1.5-.594-1.5-1.328V199.328c0-.734.67-1.328 1.5-1.328s1.5.594 1.5 1.328v189.344c0 .734-.67 1.328-1.5 1.328M223.5 390c-.83 0-1.5-.594-1.5-1.328V199.328c0-.734.67-1.328 1.5-1.328s1.5.594 1.5 1.328v189.344c0 .734-.67 1.328-1.5 1.328"/>
        <path fill="#C7B57A" d="M230.684 201h-62.368c-.728 0-1.316-.672-1.316-1.5 0-.83.588-1.5 1.316-1.5h62.368c.728 0 1.316.67 1.316 1.5 0 .828-.588 1.5-1.316 1.5M223.673 209h-48.346c-.732 0-1.327-.67-1.327-1.5 0-.828.595-1.5 1.327-1.5h48.346c.734 0 1.327.672 1.327 1.5 0 .83-.593 1.5-1.327 1.5"/>
        <g transform="translate(167 139)">
            <mask id="b" fill="#fff">
                <use xlink:href="#a"/>
            </mask>
            <path fill="#C7B57A" d="M1.5 62.22c-.83 0-1.5-.6-1.5-1.34V2.074c0-.74.67-1.34 1.5-1.34s1.5.6 1.5 1.34V60.88c0 .74-.67 1.34-1.5 1.34" mask="url(#b)"/>
        </g>
        <path fill="#C7B57A" d="M230.684 143h-62.368c-.728 0-1.316-.672-1.316-1.5 0-.83.588-1.5 1.316-1.5h62.368c.728 0 1.316.67 1.316 1.5 0 .828-.588 1.5-1.316 1.5"/>
        <path fill="#C7B57A" d="M231.5 201c-.83 0-1.5-.596-1.5-1.33v-58.34c0-.736.67-1.33 1.5-1.33s1.5.594 1.5 1.33v58.34c0 .734-.67 1.33-1.5 1.33M175.5 143c-.83 0-1.5-.606-1.5-1.352v-14.296c0-.748.67-1.352 1.5-1.352s1.5.604 1.5 1.352v14.296c0 .746-.67 1.352-1.5 1.352"/>
        <path fill="#C7B57A" d="M223.673 129h-48.346c-.732 0-1.327-.672-1.327-1.5 0-.83.595-1.5 1.327-1.5h48.346c.734 0 1.327.67 1.327 1.5 0 .828-.593 1.5-1.327 1.5"/>
        <path fill="#C7B57A" d="M223.5 141c-.83 0-1.5-.609-1.5-1.363v-12.274c0-.754.67-1.363 1.5-1.363s1.5.609 1.5 1.363v12.274c0 .754-.67 1.363-1.5 1.363M175.33 129c-.2 0-.404-.045-.596-.14a1.316 1.316 0 0 1-.592-1.772l11.338-22.36a1.336 1.336 0 0 1 1.787-.587c.656.328.921 1.122.591 1.773l-11.337 22.359c-.234.46-.704.727-1.19.727"/>
        <path fill="#C7B57A" d="M211.691 107h-25.382c-.723 0-1.309-.672-1.309-1.5 0-.83.586-1.5 1.309-1.5h25.382c.724 0 1.309.67 1.309 1.5 0 .828-.585 1.5-1.309 1.5"/>
        <path fill="#C7B57A" d="M223.67 129c-.487 0-.957-.267-1.191-.727l-11.337-22.36a1.316 1.316 0 0 1 .59-1.772 1.336 1.336 0 0 1 1.788.586l11.338 22.36c.33.651.064 1.446-.592 1.773-.192.095-.397.14-.596.14M186.5 106c-.83 0-1.5-.598-1.5-1.336V80.336c0-.739.67-1.336 1.5-1.336s1.5.597 1.5 1.336v24.328c0 .738-.67 1.336-1.5 1.336"/>
        <path fill="#C7B57A" d="M212.5 106c-.83 0-1.5-.598-1.5-1.336V80.336c0-.739.67-1.336 1.5-1.336s1.5.597 1.5 1.336v24.328c0 .738-.67 1.336-1.5 1.336"/>
        <path fill="#C7B57A" d="M211.691 82h-25.382c-.723 0-1.309-.672-1.309-1.5s.586-1.5 1.309-1.5h25.382c.724 0 1.309.672 1.309 1.5s-.585 1.5-1.309 1.5"/>
        <path fill="#C7B57A" d="M186.281 82a1.25 1.25 0 0 1-.732-.24 1.364 1.364 0 0 1-.318-1.853c5.494-8.16 12.204-34.486 12.204-53.576 0-.736.574-1.331 1.282-1.331.71 0 1.283.595 1.283 1.33 0 19.542-6.964 46.632-12.666 55.102-.25.37-.649.568-1.053.568"/>
        <path fill="#C7B57A" d="M211.719 82c-.404 0-.803-.198-1.053-.568C204.963 72.962 198 45.872 198 26.33c0-.736.573-1.331 1.283-1.331.708 0 1.282.595 1.282 1.33 0 19.09 6.71 45.416 12.204 53.577a1.364 1.364 0 0 1-.318 1.853 1.25 1.25 0 0 1-.732.24"/>
        <path fill="#C7B57A" d="M199.5 28c-.83 0-1.5-.606-1.5-1.353V10.353c0-.747.67-1.353 1.5-1.353s1.5.606 1.5 1.353v16.294c0 .747-.67 1.353-1.5 1.353"/>
        <path fill="#C7B57A" d="M203.7 17h-8.4c-.72 0-1.3-.672-1.3-1.5s.58-1.5 1.3-1.5h8.4c.72 0 1.3.672 1.3 1.5s-.58 1.5-1.3 1.5M187.5 128c-.83 0-1.5-.577-1.5-1.288v-5.424c0-.712.67-1.288 1.5-1.288s1.5.576 1.5 1.288v5.424c0 .711-.67 1.288-1.5 1.288M195.5 128c-.83 0-1.5-.577-1.5-1.288v-5.424c0-.712.67-1.288 1.5-1.288s1.5.576 1.5 1.288v5.424c0 .711-.67 1.288-1.5 1.288M203.5 128c-.83 0-1.5-.577-1.5-1.288v-5.424c0-.712.67-1.288 1.5-1.288s1.5.576 1.5 1.288v5.424c0 .711-.67 1.288-1.5 1.288M211.5 128c-.83 0-1.5-.577-1.5-1.288v-5.424c0-.712.67-1.288 1.5-1.288s1.5.576 1.5 1.288v5.424c0 .711-.67 1.288-1.5 1.288M191.5 117c-.83 0-1.5-.561-1.5-1.252v-3.496c0-.692.67-1.252 1.5-1.252s1.5.56 1.5 1.252v3.496c0 .69-.67 1.252-1.5 1.252M199.5 117c-.83 0-1.5-.561-1.5-1.252v-3.496c0-.692.67-1.252 1.5-1.252s1.5.56 1.5 1.252v3.496c0 .69-.67 1.252-1.5 1.252M208.5 117c-.83 0-1.5-.561-1.5-1.252v-3.496c0-.692.67-1.252 1.5-1.252s1.5.56 1.5 1.252v3.496c0 .69-.67 1.252-1.5 1.252M195.5 89c-.83 0-1.5-.623-1.5-1.39v-7.22c0-.767.67-1.39 1.5-1.39s1.5.623 1.5 1.39v7.22c0 .767-.67 1.39-1.5 1.39M203.5 89c-.83 0-1.5-.623-1.5-1.39v-7.22c0-.767.67-1.39 1.5-1.39s1.5.623 1.5 1.39v7.22c0 .767-.67 1.39-1.5 1.39M199.5 151.67c-7.626 0-13.83 6.203-13.83 13.829s6.204 13.831 13.83 13.831 13.83-6.205 13.83-13.831c0-7.626-6.204-13.83-13.83-13.83m0 30.331c-9.099 0-16.5-7.402-16.5-16.501 0-9.097 7.401-16.499 16.5-16.499 9.097 0 16.5 7.402 16.5 16.499 0 9.099-7.403 16.501-16.5 16.501M175.5 202c-.83 0-1.5-.608-1.5-1.358v-19.284c0-.75.67-1.358 1.5-1.358s1.5.607 1.5 1.358v19.284c0 .75-.67 1.358-1.5 1.358M223.5 203c-.83 0-1.5-.602-1.5-1.347v-20.306c0-.745.67-1.347 1.5-1.347s1.5.602 1.5 1.347v20.306c0 .745-.67 1.347-1.5 1.347M186.5 200c-.83 0-1.5-.628-1.5-1.405v-6.19c0-.776.67-1.405 1.5-1.405s1.5.63 1.5 1.405v6.19c0 .777-.67 1.405-1.5 1.405M195.5 200c-.83 0-1.5-.628-1.5-1.405v-6.19c0-.776.67-1.405 1.5-1.405s1.5.63 1.5 1.405v6.19c0 .777-.67 1.405-1.5 1.405M204.5 200c-.83 0-1.5-.628-1.5-1.405v-6.19c0-.776.67-1.405 1.5-1.405s1.5.63 1.5 1.405v6.19c0 .777-.67 1.405-1.5 1.405M212.5 200c-.83 0-1.5-.628-1.5-1.405v-6.19c0-.776.67-1.405 1.5-1.405s1.5.63 1.5 1.405v6.19c0 .777-.67 1.405-1.5 1.405"/>
        <path fill="#C7B57A" d="M199.282 167c-.249 0-.5-.07-.721-.218a1.234 1.234 0 0 1-.337-1.743l2.433-3.492a1.302 1.302 0 0 1 1.783-.329c.585.39.736 1.17.337 1.743l-2.434 3.49a1.286 1.286 0 0 1-1.061.549"/>
        <path fill="#C7B57A" d="M198.634 167c-.28 0-.562-.08-.806-.252l-6.27-4.393a1.268 1.268 0 0 1-.294-1.823c.446-.58 1.299-.705 1.907-.28l6.272 4.393c.607.428.738 1.242.293 1.823a1.391 1.391 0 0 1-1.102.532M223.5 157c-.83 0-1.5-.582-1.5-1.3v-15.4c0-.716.67-1.3 1.5-1.3s1.5.584 1.5 1.3v15.4c0 .718-.67 1.3-1.5 1.3M223.5 172c-.83 0-1.5-.646-1.5-1.444v-3.112c0-.797.67-1.444 1.5-1.444s1.5.647 1.5 1.444v3.112c0 .798-.67 1.444-1.5 1.444M175.5 157c-.83 0-1.5-.582-1.5-1.3v-15.4c0-.716.67-1.3 1.5-1.3s1.5.584 1.5 1.3v15.4c0 .718-.67 1.3-1.5 1.3M175.5 172c-.83 0-1.5-.646-1.5-1.444v-3.112c0-.797.67-1.444 1.5-1.444s1.5.647 1.5 1.444v3.112c0 .798-.67 1.444-1.5 1.444M223.673 235h-48.346c-.732 0-1.327-.67-1.327-1.5 0-.828.595-1.5 1.327-1.5h48.346c.734 0 1.327.672 1.327 1.5 0 .83-.593 1.5-1.327 1.5M223.673 244h-48.346c-.732 0-1.327-.67-1.327-1.5 0-.828.595-1.5 1.327-1.5h48.346c.734 0 1.327.672 1.327 1.5 0 .83-.593 1.5-1.327 1.5M223.673 271h-48.346c-.732 0-1.327-.672-1.327-1.5 0-.83.595-1.5 1.327-1.5h48.346c.734 0 1.327.67 1.327 1.5 0 .828-.593 1.5-1.327 1.5M223.673 280h-48.346c-.732 0-1.327-.672-1.327-1.5 0-.83.595-1.5 1.327-1.5h48.346c.734 0 1.327.67 1.327 1.5 0 .828-.593 1.5-1.327 1.5M223.673 308h-48.346c-.732 0-1.327-.672-1.327-1.5 0-.83.595-1.5 1.327-1.5h48.346c.734 0 1.327.67 1.327 1.5 0 .828-.593 1.5-1.327 1.5M223.673 321h-48.346c-.732 0-1.327-.67-1.327-1.5 0-.828.595-1.5 1.327-1.5h48.346c.734 0 1.327.672 1.327 1.5 0 .83-.593 1.5-1.327 1.5M223.673 391h-48.346c-.732 0-1.327-.67-1.327-1.5 0-.828.595-1.5 1.327-1.5h48.346c.734 0 1.327.672 1.327 1.5 0 .83-.593 1.5-1.327 1.5M223.673 383h-48.346c-.732 0-1.327-.672-1.327-1.5 0-.83.595-1.5 1.327-1.5h48.346c.734 0 1.327.67 1.327 1.5 0 .828-.593 1.5-1.327 1.5M223.673 374h-48.346c-.732 0-1.327-.67-1.327-1.5 0-.828.595-1.5 1.327-1.5h48.346c.734 0 1.327.672 1.327 1.5 0 .83-.593 1.5-1.327 1.5"/>
        <path fill="#C7B57A" d="M184.5 390c-.83 0-1.5-.59-1.5-1.32v-55.36c0-.729.67-1.32 1.5-1.32s1.5.591 1.5 1.32v55.36c0 .73-.67 1.32-1.5 1.32M194.5 391c-.83 0-1.5-.593-1.5-1.327v-37.346c0-.733.67-1.327 1.5-1.327s1.5.594 1.5 1.327v37.346c0 .734-.67 1.327-1.5 1.327M204.5 391c-.83 0-1.5-.602-1.5-1.347v-21.306c0-.743.67-1.347 1.5-1.347s1.5.604 1.5 1.347v21.306c0 .745-.67 1.347-1.5 1.347M204.5 357c-.83 0-1.5-.604-1.5-1.347v-21.306c0-.745.67-1.347 1.5-1.347s1.5.602 1.5 1.347v21.306c0 .743-.67 1.347-1.5 1.347M214.5 391c-.83 0-1.5-.596-1.5-1.332v-45.336c0-.736.67-1.332 1.5-1.332s1.5.596 1.5 1.332v45.336c0 .736-.67 1.332-1.5 1.332M184.5 308c-.83 0-1.5-.61-1.5-1.362v-12.276c0-.752.67-1.362 1.5-1.362s1.5.61 1.5 1.362v12.276c0 .752-.67 1.362-1.5 1.362M194.5 308c-.83 0-1.5-.596-1.5-1.331V289.33c0-.735.67-1.331 1.5-1.331s1.5.596 1.5 1.331v17.338c0 .735-.67 1.331-1.5 1.331M204.5 308c-.83 0-1.5-.608-1.5-1.357v-13.286c0-.75.67-1.357 1.5-1.357s1.5.608 1.5 1.357v13.286c0 .75-.67 1.357-1.5 1.357M214.5 308c-.83 0-1.5-.62-1.5-1.384v-6.232c0-.764.67-1.384 1.5-1.384s1.5.62 1.5 1.384v6.232c0 .764-.67 1.384-1.5 1.384M184.5 271c-.83 0-1.5-.603-1.5-1.346v-8.308c0-.743.67-1.346 1.5-1.346s1.5.603 1.5 1.346v8.308c0 .743-.67 1.346-1.5 1.346M194.5 270c-.83 0-1.5-.582-1.5-1.298v-16.404c0-.718.67-1.298 1.5-1.298s1.5.58 1.5 1.298v16.404c0 .716-.67 1.298-1.5 1.298M204.5 271c-.83 0-1.5-.596-1.5-1.33v-11.34c0-.734.67-1.33 1.5-1.33s1.5.596 1.5 1.33v11.34c0 .734-.67 1.33-1.5 1.33M204.5 253c-.83 0-1.5-.66-1.5-1.472v-2.056c0-.81.67-1.472 1.5-1.472s1.5.661 1.5 1.472v2.056c0 .812-.67 1.472-1.5 1.472M214.5 270c-.83 0-1.5-.589-1.5-1.314v-6.372c0-.724.67-1.314 1.5-1.314s1.5.59 1.5 1.314v6.372c0 .725-.67 1.314-1.5 1.314M214.5 254c-.83 0-1.5-.66-1.5-1.472v-2.056c0-.812.67-1.472 1.5-1.472s1.5.66 1.5 1.472v2.056c0 .812-.67 1.472-1.5 1.472M184.5 234c-.83 0-1.5-.571-1.5-1.278v-8.444c0-.706.67-1.278 1.5-1.278s1.5.572 1.5 1.278v8.444c0 .707-.67 1.278-1.5 1.278M194.5 235c-.83 0-1.5-.612-1.5-1.369V221.37c0-.757.67-1.369 1.5-1.369s1.5.612 1.5 1.369v12.262c0 .757-.67 1.369-1.5 1.369M204.5 235c-.83 0-1.5-.613-1.5-1.372v-7.256c0-.757.67-1.372 1.5-1.372s1.5.615 1.5 1.372v7.256c0 .759-.67 1.372-1.5 1.372M214.5 235c-.83 0-1.5-.612-1.5-1.37v-11.26c0-.757.67-1.37 1.5-1.37s1.5.613 1.5 1.37v11.26c0 .758-.67 1.37-1.5 1.37M182.365 155c-.755 0-1.365-.592-1.365-1.325v-4.35c0-.733.61-1.325 1.365-1.325h4.27c.755 0 1.365.592 1.365 1.325 0 .731-.61 1.325-1.365 1.325h-2.906v3.025c0 .733-.61 1.325-1.364 1.325M215.666 184h-3.332c-.738 0-1.334-.59-1.334-1.319s.596-1.318 1.334-1.318h1.998v-2.044c0-.73.596-1.319 1.334-1.319.738 0 1.334.59 1.334 1.319v3.362c0 .728-.596 1.319-1.334 1.319M185.734 183h-3.468c-.7 0-1.266-.555-1.266-1.239v-3.522c0-.684.566-1.239 1.266-1.239.7 0 1.267.555 1.267 1.239v2.284h2.2c.7 0 1.267.553 1.267 1.238 0 .684-.566 1.239-1.266 1.239M215.666 154c-.738 0-1.334-.554-1.334-1.239v-2.284h-1.998c-.738 0-1.334-.555-1.334-1.238 0-.684.596-1.239 1.334-1.239h3.332c.738 0 1.334.555 1.334 1.239v3.522c0 .685-.596 1.239-1.334 1.239"/>
    </g>
</svg>
