<svg xmlns="http://www.w3.org/2000/svg" width="400" height="400" viewBox="0 0 400 400">
    <g fill="#C7B57A" fill-rule="evenodd">
        <path d="M200.5 185.64c-8.194 0-14.86 6.666-14.86 14.86 0 8.194 6.666 14.86 14.86 14.86 8.194 0 14.86-6.666 14.86-14.86 0-8.194-6.666-14.86-14.86-14.86m0 32.36c-9.649 0-17.5-7.85-17.5-17.5s7.851-17.5 17.5-17.5c9.649 0 17.5 7.85 17.5 17.5s-7.851 17.5-17.5 17.5"/>
        <path d="M200 65.605c-74.106 0-134.395 60.29-134.395 134.395 0 74.106 60.29 134.395 134.395 134.395 74.106 0 134.395-60.29 134.395-134.395 0-74.106-60.29-134.395-134.395-134.395M200 337c-75.541 0-137-61.458-137-137S124.459 63 200 63s137 61.458 137 137-61.459 137-137 137"/>
        <path d="M78.787 227a1.285 1.285 0 0 1-1.25-1.04A128.512 128.512 0 0 1 75 200.533c0-25.543 7.496-50.085 21.676-70.972a1.258 1.258 0 0 1 1.776-.327c.579.41.722 1.223.32 1.815-13.883 20.448-21.22 44.475-21.22 69.484 0 8.37.837 16.746 2.485 24.897.143.706-.301 1.396-.991 1.543a1.248 1.248 0 0 1-.26.027M318.716 170a1.29 1.29 0 0 1-1.24-.992 124.412 124.412 0 0 0-11.311-29.036 1.346 1.346 0 0 1 .49-1.802c.623-.36 1.4-.13 1.746.508a127.027 127.027 0 0 1 11.558 29.665c.177.709-.235 1.432-.92 1.615-.107.029-.216.042-.323.042M118.699 294h-.015c-.318 0-.626-.116-.865-.326-13.046-11.459-23.373-25.191-30.695-40.817a1.303 1.303 0 0 1 .632-1.735 1.313 1.313 0 0 1 1.74.63c7.158 15.279 17.254 28.71 30.003 39.92a1.3 1.3 0 0 1-.8 2.328M272.314 302a1.31 1.31 0 0 1-1.064-.546 1.33 1.33 0 0 1 .291-1.847 123.043 123.043 0 0 0 29.065-30.033 1.307 1.307 0 0 1 1.824-.342 1.33 1.33 0 0 1 .34 1.84 125.626 125.626 0 0 1-29.685 30.675c-.234.171-.504.253-.77.253M288.7 116c-.346 0-.689-.136-.947-.405-23.222-24.503-54.61-37.996-88.382-37.996-5.683 0-11.364.396-16.888 1.179a1.299 1.299 0 1 1-.366-2.573A123.5 123.5 0 0 1 199.372 75c34.495 0 66.554 13.783 90.274 38.808a1.298 1.298 0 0 1-.946 2.192"/>
        <path d="M199.5 51.607c-81.548 0-147.893 66.344-147.893 147.893 0 81.548 66.345 147.893 147.893 147.893S347.393 281.048 347.393 199.5c0-81.55-66.345-147.893-147.893-147.893m0 298.393C116.514 350 49 282.486 49 199.5S116.514 49 199.5 49 350 116.514 350 199.5 282.486 350 199.5 350M346 262.65c-4.605 0-8.35 3.746-8.35 8.35 0 4.604 3.745 8.35 8.35 8.35 4.605 0 8.35-3.746 8.35-8.35 0-4.604-3.745-8.35-8.35-8.35m0 19.35c-6.065 0-11-4.935-11-11s4.935-11 11-11 11 4.935 11 11-4.935 11-11 11"/>
        <path d="M347.804 272c-.581 0-1.09-.442-1.18-1.062-.121-.821-.818-1.441-1.624-1.441-.806 0-1.503.62-1.622 1.441-.1.682-.71 1.151-1.362 1.048-.653-.105-1.101-.74-1.002-1.422.295-2.032 2.01-3.564 3.986-3.564 1.978 0 3.69 1.532 3.986 3.564.1.681-.349 1.317-1.002 1.422a1.1 1.1 0 0 1-.18.013M357.012 233.65c-.535 0-1.076.053-1.606.155a8.295 8.295 0 0 0-5.327 3.528 8.29 8.29 0 0 0-1.272 6.262c.762 3.914 4.202 6.755 8.184 6.755.535 0 1.076-.053 1.604-.155 4.518-.88 7.48-5.272 6.6-9.79-.761-3.914-4.203-6.755-8.183-6.755m-.021 19.35c-5.245 0-9.78-3.743-10.785-8.899a10.925 10.925 0 0 1 1.675-8.249 10.929 10.929 0 0 1 7.018-4.648 11.141 11.141 0 0 1 2.113-.204c5.245 0 9.78 3.742 10.784 8.899 1.158 5.953-2.743 11.738-8.693 12.897-.697.135-1.407.204-2.112.204"/>
        <path d="M353.212 244c-.646 0-1.183-.566-1.209-1.29-.08-2.212 1.338-4.2 3.303-4.623 2.001-.434 3.94.79 4.623 2.91.225.7-.102 1.469-.733 1.719-.628.249-1.32-.113-1.547-.814-.274-.843-1.09-1.351-1.88-1.177-.801.174-1.379.98-1.346 1.875.026.742-.492 1.37-1.16 1.399l-.051.001M361.997 202.65a8.28 8.28 0 0 0-3.127.612 8.289 8.289 0 0 0-4.553 4.48 8.299 8.299 0 0 0-.053 6.39 8.313 8.313 0 0 0 7.739 5.218 8.29 8.29 0 0 0 3.127-.612 8.293 8.293 0 0 0 4.553-4.48 8.299 8.299 0 0 0 .053-6.39 8.313 8.313 0 0 0-7.739-5.218m.006 19.35a10.949 10.949 0 0 1-10.194-6.875 10.929 10.929 0 0 1 .068-8.417 10.92 10.92 0 0 1 6-5.902 10.92 10.92 0 0 1 4.12-.806c4.504 0 8.506 2.699 10.194 6.875a10.929 10.929 0 0 1-.068 8.417 10.925 10.925 0 0 1-6 5.902 10.92 10.92 0 0 1-4.12.806"/>
        <path d="M358.324 214c-.565 0-1.077-.442-1.213-1.098-.474-2.283.611-4.671 2.522-5.556 1.91-.882 4.143-.028 5.192 1.991.352.677.157 1.552-.436 1.955-.593.402-1.359.178-1.71-.499-.425-.817-1.329-1.162-2.11-.803-.779.361-1.222 1.33-1.03 2.256.16.766-.255 1.534-.927 1.715a1.12 1.12 0 0 1-.288.039M360.99 171.65a8.326 8.326 0 0 0-4.545 1.352c-3.86 2.51-4.957 7.69-2.447 11.549a8.334 8.334 0 0 0 7.011 3.799 8.325 8.325 0 0 0 4.544-1.352c3.86-2.51 4.96-7.692 2.449-11.55a8.333 8.333 0 0 0-7.011-3.798m.018 19.35a10.973 10.973 0 0 1-9.232-5.003c-3.31-5.085-1.862-11.911 3.223-15.217a10.964 10.964 0 0 1 5.99-1.78c3.743 0 7.196 1.87 9.234 5.002 3.308 5.086 1.86 11.911-3.226 15.218a10.957 10.957 0 0 1-5.989 1.78"/>
        <path d="M358.572 183c-.496 0-.97-.286-1.188-.77-.887-1.966-.192-4.34 1.615-5.52 1.805-1.183 4.243-.857 5.67.753.48.54.432 1.369-.105 1.851a1.297 1.297 0 0 1-1.84-.106 1.787 1.787 0 0 0-2.305-.3 1.81 1.81 0 0 0-.66 2.24c.297.659.006 1.436-.65 1.735-.174.08-.357.117-.537.117M353.995 141.65a8.31 8.31 0 0 0-5.805 2.348c-3.31 3.202-3.396 8.499-.195 11.807a8.287 8.287 0 0 0 6.003 2.545 8.31 8.31 0 0 0 5.806-2.35 8.293 8.293 0 0 0 2.543-5.862 8.292 8.292 0 0 0-2.348-5.943 8.284 8.284 0 0 0-6.004-2.545m.003 19.35a10.917 10.917 0 0 1-7.91-3.353c-4.216-4.358-4.102-11.335.26-15.553a10.946 10.946 0 0 1 7.647-3.094c3.01 0 5.818 1.19 7.91 3.351a10.924 10.924 0 0 1 3.093 7.83 10.929 10.929 0 0 1-3.352 7.725 10.95 10.95 0 0 1-7.648 3.094"/>
        <path d="M351.725 153a1.2 1.2 0 0 1-.985-.514c-1.152-1.638-.938-3.93.497-5.334 1.433-1.4 3.706-1.542 5.287-.324a1.23 1.23 0 0 1 .23 1.71 1.198 1.198 0 0 1-1.691.232 1.648 1.648 0 0 0-2.148.137 1.695 1.695 0 0 0-.208 2.166c.387.549.259 1.31-.285 1.701a1.192 1.192 0 0 1-.697.226M342.01 112.65a8.373 8.373 0 0 0-6.858 3.569c-2.636 3.775-1.71 8.99 2.065 11.626a8.303 8.303 0 0 0 4.775 1.505 8.364 8.364 0 0 0 6.855-3.57c2.636-3.774 1.711-8.99-2.063-11.625a8.31 8.31 0 0 0-4.775-1.505m-.017 19.35c-2.259 0-4.434-.686-6.293-1.984-4.974-3.473-6.195-10.343-2.72-15.315a11.022 11.022 0 0 1 9.03-4.701c2.258 0 4.434.685 6.292 1.982 4.973 3.473 6.194 10.344 2.721 15.317a11.026 11.026 0 0 1-9.03 4.701"/>
        <path d="M340.23 125c-.321 0-.642-.12-.892-.363-1.544-1.494-1.782-3.963-.556-5.744 1.224-1.78 3.588-2.403 5.496-1.445.64.322.905 1.11.588 1.762a1.283 1.283 0 0 1-1.733.597c-.775-.39-1.732-.133-2.23.593-.5.726-.406 1.728.218 2.333.519.5.538 1.333.047 1.858a1.283 1.283 0 0 1-.939.409M324.009 87.65a8.36 8.36 0 0 0-7.637 4.966 8.295 8.295 0 0 0-.157 6.386 8.294 8.294 0 0 0 4.403 4.629 8.297 8.297 0 0 0 3.38.72 8.36 8.36 0 0 0 7.636-4.967c1.866-4.206-.038-9.148-4.246-11.015a8.297 8.297 0 0 0-3.38-.72m-.01 19.351a10.92 10.92 0 0 1-4.453-.947 10.922 10.922 0 0 1-5.803-6.098 10.922 10.922 0 0 1 .208-8.414A11.01 11.01 0 0 1 324.01 85c1.538 0 3.036.32 4.452.947 5.545 2.46 8.053 8.969 5.595 14.512A11.01 11.01 0 0 1 323.998 107"/>
        <path d="M322.923 100c-.26 0-.52-.064-.755-.197-1.948-1.114-2.707-3.385-1.765-5.283.94-1.897 3.325-2.92 5.563-2.373.747.183 1.189.872.984 1.542-.204.67-.976 1.062-1.724.882-.899-.223-1.872.195-2.257.97-.383.772-.077 1.693.712 2.144.653.375.844 1.15.427 1.736-.27.374-.722.579-1.185.579M301.99 65.65a8.305 8.305 0 0 0-8.129 6.485c-1.027 4.486 1.786 8.974 6.273 10.002a8.36 8.36 0 0 0 1.874.213 8.302 8.302 0 0 0 8.126-6.485 8.295 8.295 0 0 0-1.064-6.3 8.291 8.291 0 0 0-5.208-3.702 8.356 8.356 0 0 0-1.872-.213m.018 19.35c-.826 0-1.655-.094-2.467-.28-5.91-1.355-9.616-7.267-8.262-13.177A10.94 10.94 0 0 1 301.99 63c.824 0 1.654.094 2.465.28 2.862.657 5.299 2.388 6.86 4.878a10.92 10.92 0 0 1 1.402 8.299c-1.152 5.03-5.557 8.543-10.71 8.543"/>
        <path d="M301.292 78c-.163 0-.327-.028-.487-.086-2.023-.736-3.182-2.769-2.694-4.727.488-1.958 2.52-3.327 4.663-3.175.729.048 1.277.632 1.222 1.3-.054.67-.705 1.171-1.415 1.124-.903-.052-1.694.497-1.892 1.295-.199.798.27 1.623 1.09 1.922.68.247 1.011.954.743 1.579-.207.476-.705.768-1.23.768M275.993 48.65a8.314 8.314 0 0 0-8.34 8.073c-.15 4.602 3.469 8.469 8.071 8.621l.283.006a8.316 8.316 0 0 0 8.34-8.074c.15-4.601-3.469-8.47-8.071-8.622l-.283-.004zm.014 19.35l-.371-.007c-6.062-.2-10.83-5.295-10.63-11.357A10.951 10.951 0 0 1 275.993 46l.37.005c6.063.202 10.831 5.296 10.63 11.358A10.953 10.953 0 0 1 276.008 68z"/>
        <path d="M275.587 61c-.075 0-.15-.006-.227-.02-1.981-.36-3.424-2.124-3.358-4.098.066-1.978 1.627-3.643 3.629-3.875.678-.07 1.28.391 1.36 1.048.08.655-.4 1.251-1.071 1.329a1.662 1.662 0 0 0-1.471 1.575 1.659 1.659 0 0 0 1.362 1.669c.665.12 1.102.745.978 1.395a1.217 1.217 0 0 1-1.202.977M247.01 36.65c-.442 0-.891.036-1.334.107a8.289 8.289 0 0 0-5.439 3.35 8.29 8.29 0 0 0-1.48 6.215 8.307 8.307 0 0 0 8.23 7.028 8.39 8.39 0 0 0 1.336-.107 8.3 8.3 0 0 0 5.44-3.35 8.295 8.295 0 0 0 1.479-6.215 8.306 8.306 0 0 0-8.232-7.028M246.988 56a10.943 10.943 0 0 1-10.846-9.258c-.466-2.9.225-5.808 1.948-8.188a10.922 10.922 0 0 1 7.167-4.414c.58-.092 1.17-.14 1.753-.14 5.426 0 9.987 3.893 10.849 9.258.465 2.899-.226 5.808-1.948 8.188a10.934 10.934 0 0 1-7.168 4.414c-.58.092-1.171.14-1.755.14"/>
        <path d="M246.837 49c-1.866 0-3.493-1.467-3.79-3.425-.297-1.97.826-3.91 2.614-4.516.602-.206 1.244.146 1.436.779.192.634-.14 1.314-.738 1.517-.725.245-1.18 1.036-1.058 1.838.122.796.78 1.394 1.536 1.394h.022c.625 0 1.135.533 1.141 1.197.005.666-.502 1.211-1.133 1.216h-.03zM217.002 30.65c-.978 0-1.943.172-2.872.513a8.293 8.293 0 0 0-4.7 4.327 8.293 8.293 0 0 0-.265 6.383 8.38 8.38 0 0 0 7.84 5.477c.977 0 1.943-.17 2.872-.511 4.321-1.585 6.547-6.39 4.964-10.712a8.38 8.38 0 0 0-7.839-5.477m.003 19.35a11.035 11.035 0 0 1-10.327-7.214 10.92 10.92 0 0 1 .349-8.41 10.923 10.923 0 0 1 6.193-5.702 10.936 10.936 0 0 1 3.782-.674c4.594 0 8.745 2.899 10.325 7.215 2.088 5.694-.846 12.024-6.54 14.112a10.934 10.934 0 0 1-3.782.673"/>
        <path d="M217.191 43a4.216 4.216 0 0 1-3.938-2.746c-.707-1.923.112-4.116 1.902-5.1a1.242 1.242 0 0 1 1.686.489c.33.6.112 1.354-.49 1.684a1.708 1.708 0 0 0-.768 2.074 1.71 1.71 0 0 0 1.927 1.086 1.24 1.24 0 1 1 .494 2.431 4.03 4.03 0 0 1-.813.082M185.991 30.65a8.323 8.323 0 0 0-4.308 1.204 8.292 8.292 0 0 0-3.786 5.147 8.294 8.294 0 0 0 .96 6.317 8.294 8.294 0 0 0 7.153 4.032 8.331 8.331 0 0 0 4.307-1.206A8.286 8.286 0 0 0 194.103 41a8.292 8.292 0 0 0-.96-6.317 8.289 8.289 0 0 0-7.152-4.032M186.01 50c-3.89 0-7.412-1.986-9.42-5.312a10.933 10.933 0 0 1-1.267-8.322 10.93 10.93 0 0 1 4.99-6.78A10.987 10.987 0 0 1 185.99 28c3.89 0 7.411 1.986 9.418 5.312a10.92 10.92 0 0 1 1.267 8.322 10.93 10.93 0 0 1-4.988 6.779A10.992 10.992 0 0 1 186.01 50"/>
        <path d="M186.497 43c-1.532 0-3.026-.768-3.855-2.103-1.138-1.83-.727-4.235.952-5.597a1.357 1.357 0 0 1 1.874.165 1.27 1.27 0 0 1-.17 1.82 1.745 1.745 0 0 0-.382 2.274 1.852 1.852 0 0 0 2.246.73c.676-.272 1.456.04 1.737.698.28.66-.043 1.417-.72 1.69a4.523 4.523 0 0 1-1.682.323M155 35.65a8.34 8.34 0 0 0-5.604 2.16c-3.413 3.09-3.675 8.38-.584 11.794a8.37 8.37 0 0 0 6.194 2.746 8.333 8.333 0 0 0 5.6-2.16c3.415-3.09 3.678-8.382.588-11.794A8.372 8.372 0 0 0 155 35.65m.006 19.35a11.027 11.027 0 0 1-8.159-3.616 10.93 10.93 0 0 1-2.833-7.929 10.925 10.925 0 0 1 3.605-7.609A10.975 10.975 0 0 1 155 33c3.103 0 6.077 1.319 8.158 3.616 4.073 4.498 3.726 11.467-.772 15.538a10.974 10.974 0 0 1-7.38 2.846"/>
        <path d="M155.173 49c-1.148 0-2.289-.519-3.101-1.51-1.37-1.673-1.435-4.247-.15-5.987.43-.584 1.208-.673 1.736-.195.528.476.609 1.336.178 1.92-.521.704-.492 1.75.066 2.43.558.682 1.497.817 2.182.315.568-.417 1.333-.245 1.71.385.377.629.222 1.476-.348 1.891a3.838 3.838 0 0 1-2.273.751M126.009 47.65a8.283 8.283 0 0 0-6.69 3.345 8.299 8.299 0 0 0-1.582 6.192 8.29 8.29 0 0 0 3.26 5.496 8.278 8.278 0 0 0 4.996 1.667 8.28 8.28 0 0 0 6.688-3.345 8.293 8.293 0 0 0 1.582-6.192 8.293 8.293 0 0 0-3.258-5.496 8.275 8.275 0 0 0-4.996-1.667M125.993 67c-2.39 0-4.668-.76-6.585-2.197a10.923 10.923 0 0 1-4.294-7.24 10.931 10.931 0 0 1 2.084-8.157 10.912 10.912 0 0 1 8.81-4.406c2.39 0 4.667.76 6.585 2.196a10.924 10.924 0 0 1 4.293 7.241 10.929 10.929 0 0 1-2.083 8.156 10.908 10.908 0 0 1-8.81 4.407"/>
        <path d="M126.474 60a4.584 4.584 0 0 1-2.683-.853c-1.757-1.266-2.303-3.618-1.272-5.472.343-.622 1.149-.857 1.795-.523.647.332.891 1.106.545 1.728-.417.751-.191 1.705.523 2.221.716.515 1.73.454 2.36-.141a1.363 1.363 0 0 1 1.877.014 1.242 1.242 0 0 1-.016 1.806c-.852.807-1.989 1.22-3.129 1.22M100.01 64.65a8.403 8.403 0 0 0-7.521 4.715 8.292 8.292 0 0 0-.37 6.378 8.293 8.293 0 0 0 4.249 4.773 8.273 8.273 0 0 0 3.628.834 8.4 8.4 0 0 0 7.521-4.715c2.005-4.143.264-9.145-3.88-11.15a8.252 8.252 0 0 0-3.627-.835M99.996 84c-1.664 0-3.273-.37-4.782-1.1a10.922 10.922 0 0 1-5.598-6.286 10.93 10.93 0 0 1 .486-8.403C91.928 64.438 95.817 62 100.01 62c1.666 0 3.274.37 4.782 1.1 5.459 2.642 7.752 9.23 5.112 14.689-1.826 3.773-5.715 6.211-9.908 6.211"/>
        <path d="M100.255 77a3.924 3.924 0 0 1-1.846-.46c-1.88-.995-2.837-3.387-2.225-5.564.206-.73.916-1.14 1.581-.914.67.224 1.043.999.838 1.73-.248.88.143 1.852.908 2.256.77.41 1.705.138 2.182-.621.395-.63 1.183-.79 1.757-.357.577.431.723 1.293.328 1.923-.809 1.289-2.152 2.007-3.523 2.007M77.994 85.65a8.352 8.352 0 0 0-8.063 6.216 8.301 8.301 0 0 0 .856 6.333 8.291 8.291 0 0 0 5.082 3.872c.7.185 1.42.28 2.138.28a8.353 8.353 0 0 0 8.062-6.217 8.307 8.307 0 0 0-.855-6.333 8.295 8.295 0 0 0-5.083-3.872c-.7-.185-1.42-.28-2.137-.28M78.007 105c-.946 0-1.894-.123-2.816-.367a10.926 10.926 0 0 1-6.695-5.1 10.934 10.934 0 0 1-1.127-8.342A11.002 11.002 0 0 1 77.994 83c.945 0 1.894.123 2.816.367a10.93 10.93 0 0 1 6.694 5.1 10.927 10.927 0 0 1 1.126 8.342A11 11 0 0 1 78.007 105"/>
        <path d="M77.11 98c-.345 0-.694-.047-1.041-.143-1.951-.55-3.261-2.567-3.046-4.695.072-.714.643-1.238 1.346-1.153.671.077 1.156.717 1.084 1.431-.088.862.446 1.68 1.241 1.903.79.224 1.638-.207 1.965-1 .266-.66.984-.963 1.606-.677.618.286.902 1.052.634 1.71C80.241 96.993 78.716 98 77.11 98M59.991 111.651c-4.377 0-8.033 3.425-8.322 7.797-.304 4.594 3.185 8.579 7.78 8.883 4.592.316 8.578-3.22 8.882-7.778.303-4.594-3.185-8.579-7.78-8.883a7.946 7.946 0 0 0-.56-.019M60.01 131c-.244 0-.49-.008-.737-.024-6.05-.401-10.65-5.651-10.248-11.703.398-6.003 5.593-10.655 11.704-10.248 6.05.401 10.65 5.651 10.248 11.703-.382 5.76-5.2 10.272-10.967 10.272"/>
        <path d="M59.026 123a4.066 4.066 0 0 1-4.021-3.696 1.2 1.2 0 0 1 1.09-1.299 1.19 1.19 0 0 1 1.295 1.095 1.65 1.65 0 0 0 1.53 1.493 1.641 1.641 0 0 0 1.713-1.277 1.197 1.197 0 1 1 2.339.518A4.065 4.065 0 0 1 59.026 123M47.012 139.651c-.35 0-.705.023-1.061.068-4.567.577-7.811 4.764-7.233 9.332.57 4.507 4.706 7.817 9.332 7.231 4.566-.579 7.81-4.764 7.232-9.332-.526-4.161-4.083-7.299-8.27-7.299M46.988 159c-5.52 0-10.205-4.134-10.9-9.617a10.93 10.93 0 0 1 2.22-8.12 10.925 10.925 0 0 1 7.309-4.175c6.1-.77 11.541 3.59 12.295 9.53.762 6.015-3.513 11.53-9.528 12.295-.468.058-.936.087-1.396.087"/>
        <path d="M46.952 151c-1.783 0-3.41-1.15-3.906-2.832-.181-.617.189-1.26.826-1.436.642-.174 1.304.182 1.487.8.219.744.998 1.234 1.793 1.133.803-.098 1.424-.756 1.443-1.53.018-.642.569-1.187 1.234-1.131.662.016 1.187.55 1.17 1.19-.05 1.91-1.573 3.533-3.545 3.776-.168.02-.336.03-.502.03M40 169.65c-.885 0-1.765.142-2.615.421-4.37 1.442-6.755 6.17-5.314 10.541a8.329 8.329 0 0 0 7.925 5.738c.885 0 1.764-.14 2.615-.421a8.293 8.293 0 0 0 4.84-4.17 8.284 8.284 0 0 0 .474-6.371A8.33 8.33 0 0 0 40 169.65M39.996 189a10.978 10.978 0 0 1-10.444-7.559c-1.895-5.759 1.246-11.989 7.005-13.886a10.985 10.985 0 0 1 13.886 7.004c.918 2.79.696 5.77-.627 8.394a10.922 10.922 0 0 1-6.377 5.493 11.016 11.016 0 0 1-3.443.554"/>
        <path d="M38.817 181c-1.525 0-2.958-.86-3.683-2.318a1.274 1.274 0 0 1 .54-1.694 1.221 1.221 0 0 1 1.659.553 1.686 1.686 0 0 0 2.036.848 1.737 1.737 0 0 0 1.141-1.918c-.113-.685.34-1.335 1.01-1.451.679-.125 1.309.346 1.423 1.032.338 2.044-.867 4.078-2.803 4.73a4.154 4.154 0 0 1-1.323.218M38.991 200.65a8.337 8.337 0 0 0-4.069 1.067 8.29 8.29 0 0 0-3.955 5.017 8.297 8.297 0 0 0 .751 6.346 8.36 8.36 0 0 0 7.29 4.27 8.337 8.337 0 0 0 4.07-1.067 8.284 8.284 0 0 0 3.954-5.016c.605-2.146.339-4.4-.75-6.345a8.361 8.361 0 0 0-7.29-4.272m.017 19.35c-3.98 0-7.66-2.156-9.601-5.626a10.918 10.918 0 0 1-.99-8.36 10.917 10.917 0 0 1 5.21-6.61A11 11 0 0 1 38.991 198a11.01 11.01 0 0 1 9.601 5.626 10.921 10.921 0 0 1 .99 8.36 10.923 10.923 0 0 1-5.21 6.61A10.99 10.99 0 0 1 39.009 220"/>
        <path d="M38.686 213c-1.3 0-2.58-.608-3.415-1.735-.435-.586-.336-1.434.223-1.891.558-.46 1.364-.353 1.8.235.524.71 1.491.91 2.243.466.752-.445 1.095-1.413.793-2.252-.25-.697.086-1.475.748-1.737.664-.261 1.402.09 1.651.788.744 2.075-.09 4.464-1.938 5.553a4.142 4.142 0 0 1-2.105.573M42.996 231.65a8.354 8.354 0 0 0-5.393 1.979c-3.516 2.975-3.955 8.254-.979 11.767a8.36 8.36 0 0 0 11.775.975c3.515-2.975 3.952-8.254.977-11.767a8.348 8.348 0 0 0-6.38-2.954m.01 19.35a10.994 10.994 0 0 1-8.404-3.89c-3.922-4.63-3.345-11.584 1.286-15.503A11.015 11.015 0 0 1 42.996 229a10.99 10.99 0 0 1 8.402 3.89c3.922 4.63 3.344 11.584-1.285 15.503A11.018 11.018 0 0 1 43.005 251"/>
        <path d="M42.442 243c-1.067 0-2.135-.341-2.98-1.022-.561-.453-.62-1.241-.13-1.762.493-.52 1.346-.572 1.906-.121.679.548 1.715.55 2.41.006.692-.542.859-1.488.388-2.197-.391-.587-.193-1.357.444-1.718.633-.363 1.467-.178 1.857.41 1.165 1.751.76 4.077-.943 5.412-.846.661-1.9.992-2.952.992M54.005 260.65a8.32 8.32 0 0 0-6.522 3.127c-2.881 3.591-2.3 8.856 1.292 11.736a8.263 8.263 0 0 0 5.218 1.837 8.322 8.322 0 0 0 6.523-3.127c2.882-3.593 2.303-8.857-1.29-11.736a8.263 8.263 0 0 0-5.22-1.837M53.992 280c-2.49 0-4.931-.86-6.877-2.42-4.735-3.793-5.497-10.729-1.701-15.46a10.959 10.959 0 0 1 8.59-4.12c2.49 0 4.933.859 6.878 2.418 4.736 3.794 5.498 10.73 1.702 15.462a10.961 10.961 0 0 1-8.592 4.12"/>
        <path d="M52.733 273a4.009 4.009 0 0 1-2.103-.595c-.603-.371-.81-1.191-.46-1.832.346-.64 1.117-.86 1.724-.489.727.448 1.676.255 2.207-.449.533-.705.504-1.73-.066-2.387a1.402 1.402 0 0 1 .075-1.894 1.21 1.21 0 0 1 1.783.079c1.405 1.624 1.482 4.151.178 5.879A4.187 4.187 0 0 1 52.733 273M70.007 286.65a8.333 8.333 0 0 0-7.4 4.468c-2.141 4.075-.567 9.133 3.509 11.273a8.25 8.25 0 0 0 3.875.959 8.332 8.332 0 0 0 7.4-4.468c2.142-4.074.568-9.132-3.507-11.273a8.271 8.271 0 0 0-3.877-.959M69.99 306c-1.768 0-3.533-.436-5.107-1.263-5.371-2.82-7.444-9.483-4.624-14.851A10.978 10.978 0 0 1 70.007 284c1.768 0 3.535.437 5.108 1.264 5.37 2.82 7.446 9.482 4.625 14.85A10.982 10.982 0 0 1 69.991 306"/>
        <path d="M69.387 300c-.49 0-.987-.074-1.468-.23-.713-.229-1.09-.955-.844-1.62.244-.665 1.02-1.016 1.733-.789.859.278 1.83-.085 2.255-.845.428-.76.197-1.712-.533-2.216-.607-.418-.737-1.215-.29-1.782.445-.567 1.303-.686 1.905-.27 1.808 1.244 2.38 3.588 1.334 5.452-.81 1.441-2.422 2.3-4.092 2.3M90.994 310.65c-3.655 0-6.94 2.448-7.991 5.951-1.322 4.41 1.188 9.073 5.596 10.395a8.344 8.344 0 0 0 2.403.354c3.654 0 6.94-2.447 7.991-5.951a8.298 8.298 0 0 0-.645-6.357 8.286 8.286 0 0 0-4.952-4.037 8.33 8.33 0 0 0-2.402-.355m.008 19.35c-1.068 0-2.133-.156-3.164-.465-5.807-1.744-9.115-7.886-7.373-13.694 1.384-4.616 5.714-7.841 10.53-7.841 1.067 0 2.13.158 3.163.466a10.928 10.928 0 0 1 6.523 5.32 10.935 10.935 0 0 1 .85 8.375c-1.385 4.616-5.715 7.839-10.529 7.839"/>
        <path d="M89.689 322c-.195 0-.391-.014-.588-.04-.7-.094-1.187-.716-1.088-1.388.098-.67.748-1.14 1.444-1.044.847.118 1.668-.395 1.914-1.187.248-.792-.147-1.654-.916-2.004-.638-.29-.91-1.022-.608-1.635.303-.612 1.064-.874 1.703-.583 1.9.865 2.877 2.983 2.271 4.927-.55 1.76-2.266 2.954-4.132 2.954M114.989 329.65a8.317 8.317 0 0 0-8.297 7.523 8.293 8.293 0 0 0 1.848 6.116 8.295 8.295 0 0 0 5.633 3.018 8.334 8.334 0 0 0 9.134-7.48 8.293 8.293 0 0 0-1.847-6.116 8.288 8.288 0 0 0-5.632-3.018 8.546 8.546 0 0 0-.839-.043m.024 19.35c-.366 0-.733-.019-1.101-.056a10.928 10.928 0 0 1-7.421-3.975 10.926 10.926 0 0 1-2.436-8.059c.6-6.012 5.914-10.464 12.034-9.854a10.928 10.928 0 0 1 7.42 3.975 10.935 10.935 0 0 1 2.436 8.059 10.959 10.959 0 0 1-10.932 9.91"/>
        <path d="M114.179 341a1.189 1.189 0 0 1-1.177-1.137 1.194 1.194 0 0 1 1.115-1.261c.786-.042 1.438-.68 1.516-1.483.08-.804-.436-1.559-1.196-1.757a1.202 1.202 0 0 1-.852-1.46 1.178 1.178 0 0 1 1.434-.865c1.883.49 3.155 2.347 2.962 4.32-.197 2.005-1.77 3.536-3.739 3.642l-.063.001M143.011 342.65c-.26 0-.523.012-.787.037a8.29 8.29 0 0 0-5.65 2.983 8.284 8.284 0 0 0-1.886 6.104 8.314 8.314 0 0 0 9.086 7.539c4.584-.428 7.965-4.506 7.539-9.089a8.307 8.307 0 0 0-8.302-7.574m-.024 19.35a10.944 10.944 0 0 1-10.938-9.98 10.924 10.924 0 0 1 2.485-8.042 10.926 10.926 0 0 1 7.445-3.93 10.955 10.955 0 0 1 11.973 9.93c.562 6.038-3.893 11.41-9.931 11.973a11.33 11.33 0 0 1-1.034.049"/>
        <path d="M142.699 355a1.202 1.202 0 0 1-.285-2.363c.764-.193 1.286-.945 1.212-1.75-.074-.803-.723-1.443-1.512-1.49a1.194 1.194 0 0 1-1.112-1.268 1.176 1.176 0 0 1 1.25-1.127c1.946.115 3.549 1.69 3.73 3.664.183 1.973-1.106 3.82-2.995 4.298a1.138 1.138 0 0 1-.288.036M174.006 351.65c-.792 0-1.583.114-2.351.339a8.286 8.286 0 0 0-4.976 4.008 8.294 8.294 0 0 0-.686 6.353c1.036 3.533 4.328 6 8.005 6 .793 0 1.584-.114 2.354-.339 4.415-1.296 6.955-5.942 5.659-10.36-1.036-3.533-4.328-6.001-8.005-6.001m-.008 19.35c-4.846 0-9.181-3.25-10.549-7.906a10.922 10.922 0 0 1 .904-8.368 10.927 10.927 0 0 1 6.556-5.28 11.04 11.04 0 0 1 3.097-.446c4.846 0 9.183 3.251 10.548 7.906 1.707 5.819-1.638 11.941-7.458 13.648a11 11 0 0 1-3.098.446"/>
        <path d="M173.977 363c-.483 0-.945-.261-1.163-.708-.3-.614-.023-1.344.62-1.63.774-.346 1.175-1.205.932-1.996-.243-.794-1.062-1.31-1.91-1.199-.723.088-1.35-.381-1.445-1.052-.093-.671.4-1.29 1.1-1.38 2.083-.264 4.119.994 4.716 2.94.597 1.945-.396 4.056-2.309 4.91a1.32 1.32 0 0 1-.54.115M207.992 352.65c-1.34 0-2.626.315-3.826.935a8.292 8.292 0 0 0-4.118 4.884 8.292 8.292 0 0 0 .54 6.367 8.322 8.322 0 0 0 7.42 4.514c1.34 0 2.627-.314 3.827-.935a8.295 8.295 0 0 0 4.12-4.884 8.3 8.3 0 0 0-.543-6.367 8.324 8.324 0 0 0-7.42-4.514m.016 19.35a10.962 10.962 0 0 1-9.774-5.947 10.928 10.928 0 0 1-.711-8.387c.89-2.8 2.817-5.085 5.425-6.434a11.01 11.01 0 0 1 5.044-1.232c4.131 0 7.876 2.279 9.774 5.947a10.934 10.934 0 0 1 .711 8.387 10.926 10.926 0 0 1-5.426 6.435c-1.555.806-3.301 1.231-5.043 1.231"/>
        <path d="M209.315 365a1.4 1.4 0 0 1-1.107-.524c-.445-.568-.31-1.364.302-1.778.736-.499.974-1.448.55-2.207-.422-.762-1.395-1.131-2.255-.86-.712.229-1.491-.13-1.733-.797-.24-.667.142-1.388.857-1.613 2.13-.67 4.523.231 5.56 2.1 1.04 1.866.449 4.203-1.372 5.436a1.43 1.43 0 0 1-.802.243M240.99 345.65a8.26 8.26 0 0 0-5.175 1.804c-3.611 2.857-4.224 8.119-1.366 11.729a8.314 8.314 0 0 0 6.555 3.167 8.263 8.263 0 0 0 5.175-1.804 8.298 8.298 0 0 0 3.112-5.581 8.294 8.294 0 0 0-1.748-6.148 8.309 8.309 0 0 0-6.552-3.167m.013 19.35a10.953 10.953 0 0 1-8.633-4.173c-3.766-4.756-2.957-11.688 1.798-15.452a10.892 10.892 0 0 1 6.822-2.375c3.387 0 6.532 1.52 8.632 4.173a10.926 10.926 0 0 1 2.302 8.098 10.928 10.928 0 0 1-4.1 7.353 10.885 10.885 0 0 1-6.821 2.376"/>
        <path d="M242.947 358a1.23 1.23 0 0 1-.863-.358 1.393 1.393 0 0 1-.063-1.89c.575-.653.61-1.677.081-2.382-.53-.708-1.477-.907-2.211-.466-.607.367-1.38.142-1.724-.499-.347-.642-.136-1.458.472-1.824 1.804-1.091 4.147-.606 5.446 1.126 1.297 1.734 1.206 4.255-.213 5.866-.249.284-.586.427-.925.427M277.002 332.65a8.347 8.347 0 0 0-6.343 2.914c-2.999 3.495-2.593 8.777.902 11.773a8.347 8.347 0 0 0 11.776-.901c2.998-3.495 2.593-8.777-.903-11.773a8.347 8.347 0 0 0-5.432-2.013m-.009 19.35c-2.623 0-5.165-.94-7.159-2.65-4.605-3.948-5.137-10.906-1.187-15.511a11.001 11.001 0 0 1 15.514-1.189 10.92 10.92 0 0 1 3.806 7.51 10.923 10.923 0 0 1-2.618 8.001 10.997 10.997 0 0 1-8.356 3.839"/>
        <path d="M279.171 344a1.44 1.44 0 0 1-.714-.188c-.635-.365-.829-1.134-.434-1.718.478-.705.317-1.649-.374-2.195-.693-.547-1.73-.55-2.412-.007-.565.447-1.421.39-1.908-.132-.489-.522-.425-1.309.142-1.758 1.687-1.337 4.243-1.337 5.941.005 1.697 1.341 2.088 3.665.91 5.406a1.385 1.385 0 0 1-1.15.587M304.008 313.65a8.366 8.366 0 0 0-7.264 4.225 8.306 8.306 0 0 0-.79 6.342 8.286 8.286 0 0 0 3.923 5.041 8.339 8.339 0 0 0 4.114 1.092 8.37 8.37 0 0 0 7.266-4.225 8.299 8.299 0 0 0 .79-6.342 8.286 8.286 0 0 0-3.924-5.041 8.339 8.339 0 0 0-4.115-1.092m-.017 19.35c-1.893 0-3.768-.497-5.423-1.438a10.927 10.927 0 0 1-5.17-6.643 10.935 10.935 0 0 1 1.043-8.353 11.022 11.022 0 0 1 9.567-5.566c1.895 0 3.77.497 5.425 1.438a10.93 10.93 0 0 1 5.168 6.643c.78 2.832.41 5.798-1.042 8.353A11.02 11.02 0 0 1 303.99 333"/>
        <path d="M306.52 324c-.152 0-.308-.028-.46-.09-.662-.266-.993-1.043-.739-1.735.307-.836-.03-1.805-.78-2.253a1.717 1.717 0 0 0-2.249.45 1.245 1.245 0 0 1-1.803.224 1.387 1.387 0 0 1-.213-1.889c1.307-1.736 3.688-2.218 5.533-1.12 1.847 1.098 2.667 3.483 1.91 5.549a1.289 1.289 0 0 1-1.199.864M325.999 290.65a8.345 8.345 0 0 0-7.912 5.689c-1.467 4.362.887 9.106 5.25 10.573a8.344 8.344 0 0 0 10.576-5.25c1.467-4.363-.887-9.107-5.25-10.574a8.332 8.332 0 0 0-2.664-.438M326 310c-1.19 0-2.37-.193-3.509-.576-5.746-1.935-8.85-8.183-6.918-13.93a10.993 10.993 0 0 1 13.932-6.918c5.749 1.933 8.852 8.183 6.92 13.93A10.992 10.992 0 0 1 326 310"/>
        <path d="M328.724 301c-.071 0-.142-.006-.215-.019a1.255 1.255 0 0 1-1.002-1.455 1.732 1.732 0 0 0-1.132-1.918 1.689 1.689 0 0 0-2.044.833 1.223 1.223 0 0 1-1.662.54 1.267 1.267 0 0 1-.532-1.692c.948-1.868 3.06-2.736 5.024-2.062 1.935.662 3.13 2.697 2.778 4.734a1.242 1.242 0 0 1-1.215 1.039M221.724 327a1.28 1.28 0 0 1-1.247-1.047l-21.452-109.394c-.138-.705.31-1.394 1-1.535.69-.137 1.36.316 1.5 1.023l21.45 109.392c.139.707-.309 1.394-1 1.535a1.182 1.182 0 0 1-.25.026"/>
        <path d="M221.724 327a1.28 1.28 0 0 1-1.247-1.047l-21.452-109.394c-.138-.705.31-1.394 1-1.535.69-.137 1.36.316 1.5 1.023l21.45 109.392c.139.707-.309 1.394-1 1.535a1.182 1.182 0 0 1-.25.026M230.7 327a1.3 1.3 0 0 1-1.271-1.05l-22.403-112.385a1.307 1.307 0 0 1 1.017-1.54 1.299 1.299 0 0 1 1.528 1.025l22.403 112.384A1.306 1.306 0 0 1 230.7 327"/>
        <path d="M178.275 327c-.082 0-.166-.008-.25-.026-.691-.14-1.139-.828-1-1.535l21.451-109.392c.139-.707.81-1.16 1.499-1.022.69.142 1.138.829 1 1.534l-21.452 109.394a1.28 1.28 0 0 1-1.248 1.047"/>
        <path d="M178.275 327c-.082 0-.166-.008-.25-.026-.691-.14-1.139-.828-1-1.535l21.451-109.392c.139-.707.81-1.16 1.499-1.022.69.142 1.138.829 1 1.534l-21.452 109.394a1.28 1.28 0 0 1-1.248 1.047M168.3 327a1.306 1.306 0 0 1-1.274-1.566l22.403-112.384a1.297 1.297 0 0 1 1.528-1.024c.703.143 1.159.83 1.017 1.54l-22.403 112.383A1.3 1.3 0 0 1 168.3 327M200 171c-.553 0-1-.577-1-1.287v-36.426c0-.712.447-1.287 1-1.287.553 0 1 .575 1 1.287v36.426c0 .71-.447 1.287-1 1.287M200 120c-.553 0-1-.582-1-1.299V96.3c0-.717.447-1.299 1-1.299.553 0 1 .582 1 1.299V118.7c0 .717-.447 1.299-1 1.299M260.693 200h-36.386c-.723 0-1.307-.448-1.307-1s.584-1 1.307-1h36.386c.723 0 1.307.448 1.307 1s-.584 1-1.307 1M299.687 200h-13.374c-.725 0-1.313-.448-1.313-1s.588-1 1.313-1h13.374c.726 0 1.313.448 1.313 1s-.587 1-1.313 1M321.652 200h-4.304c-.745 0-1.348-.448-1.348-1s.603-1 1.348-1h4.304c.745 0 1.348.448 1.348 1s-.603 1-1.348 1M173.693 200h-22.386c-.723 0-1.307-.448-1.307-1s.584-1 1.307-1h22.386c.723 0 1.307.448 1.307 1s-.584 1-1.307 1M140.687 200h-10.374c-.726 0-1.313-.448-1.313-1s.587-1 1.313-1h10.374c.726 0 1.313.448 1.313 1s-.587 1-1.313 1M112.693 200H85.307c-.723 0-1.307-.448-1.307-1s.584-1 1.307-1h27.386c.723 0 1.307.448 1.307 1s-.584 1-1.307 1"/>
    </g>
</svg>
