<svg xmlns="http://www.w3.org/2000/svg" xmlns:xlink="http://www.w3.org/1999/xlink" width="100" height="100" viewBox="0 0 100 100">
    <defs>
        <path id="a" d="M0 .146h85.854V86H0z"/>
    </defs>
    <g fill="none" fill-rule="evenodd">
        <g transform="translate(7 7)">
            <mask id="b" fill="#fff">
                <use xlink:href="#a"/>
            </mask>
            <path fill="#FFF" d="M42.934 4.333C21.53 4.33 4.214 21.628 4.187 43.043 4.16 64.435 21.45 81.766 42.87 81.816c21.42.05 38.818-17.33 38.8-38.762-.017-21.41-17.332-38.718-38.736-38.722M0 43.076C.002 19.502 19.395.116 42.944.146c23.644.031 42.928 19.327 42.91 42.937C85.836 66.718 66.53 86.016 42.924 86 19.285 85.984-.003 66.695 0 43.076" mask="url(#b)"/>
        </g>
        <path fill="#FFF" d="M46.862 64l-2.841-2.738L55.557 50.07 44 38.876 46.655 36 61 50.268 46.862 64"/>
    </g>
</svg>
