<svg xmlns="http://www.w3.org/2000/svg" xmlns:xlink="http://www.w3.org/1999/xlink" width="100" height="100" viewBox="0 0 100 100">
    <defs>
        <path id="a" d="M0 .113h79.904V77H0z"/>
    </defs>
    <g fill="none" fill-rule="evenodd">
        <g transform="translate(10 12)">
            <mask id="b" fill="#fff">
                <use xlink:href="#a"/>
            </mask>
            <path fill="#C7B57A" d="M16.165 38.247c-.616-.61-1.198-1.188-1.777-1.76l.444 2.255 1.333-.495M50.982 7.853l.128-.103-.812-3.496c-.844.198-1.578.37-2.126.497l2.81 3.102M13.474 31.098c-.122 2.565.908 4.355 2.98 5.687 0-.841.008-1.645-.01-2.449a.668.668 0 0 0-.183-.406c-.895-.923-1.802-1.835-2.787-2.832m4.482.515l-5.642-5.619c.144.778.292 1.658.48 2.53.063.298.156.641.356.848 1.246 1.292 2.526 2.552 3.846 3.873l.96-1.632m54.893 39.225h3.53c0-.795-.108-1.549.022-2.259.278-1.515-.705-2.212-1.697-2.98-.532.422-1.041.8-1.515 1.217-.16.14-.32.378-.325.575-.03 1.129-.015 2.26-.015 3.447M52.253 13.075c-.231-1.109-.458-2.231-.709-3.348-.03-.136-.183-.251-.293-.362-1.365-1.363-2.727-2.728-4.104-4.078-.153-.15-.405-.319-.589-.296-.709.088-1.409.25-2.054.373l7.75 7.711m-41.04 7.404c.175.952.345 1.723.45 2.502.09.655.366 1.156.849 1.624 1.82 1.763 3.6 3.567 5.397 5.354.194.193.4.375.631.589.23-.385.377-.702.588-.966.44-.55.37-.934-.158-1.445-2.37-2.295-4.689-4.644-7.027-6.972-.197-.196-.405-.382-.73-.686m60.132 37.019c-2.444-2.596-8.2-2.562-10.408.049 1.416.25 2.725.625 2.698 2.42l7.71-2.47m-60.944-41.97c.146.81.276 1.723.49 2.615.092.386.282.805.557 1.083 2.717 2.745 5.46 5.463 8.2 8.187.155.155.333.287.337.29l1.607-1.035-11.191-11.14m30.45-9.307l12.415 12.113c-.128-.635-.325-1.455-.448-2.286-.102-.689-.428-1.195-.922-1.68-2.471-2.422-4.998-4.799-7.326-7.353-1.109-1.215-2.17-1.452-3.579-.883-.024.01-.045.028-.14.089M30.313 8.333c.045.112.051.172.085.205a5062.23 5062.23 0 0 0 10.667 10.627c.128.126.379.244.535.207.636-.15 1.257-.36 1.908-.557-.062-.13-.079-.212-.128-.261A4888.314 4888.314 0 0 0 32.937 8.15c-.132-.13-.371-.256-.537-.231-.696.105-1.383.268-2.086.413m3.231-.53c3.673 3.559 7.253 7.032 10.846 10.492.14.135.424.231.608.191.627-.137 1.24-.342 1.95-.548-.281-.295-.476-.504-.677-.706-2.868-2.883-5.817-5.692-8.57-8.68-1.183-1.285-2.298-1.666-4.157-.75m6.63 11.958c-.03-.101-.03-.134-.047-.15-3.572-3.6-7.144-7.202-10.726-10.793-.126-.126-.372-.237-.536-.208-.692.124-1.374.303-2.096.47.075.144.096.223.146.273A5684.21 5684.21 0 0 0 37.7 20.09c.132.13.375.275.525.24.66-.155 1.303-.375 1.95-.57m-3.403.654c-3.537-3.52-7.226-7.195-10.922-10.862-.117-.116-.325-.238-.467-.215-.712.114-1.415.276-2.28.454l12.834 12.51.835-1.887M37.34 6.91c.092.16.11.212.145.248 3.385 3.375 6.772 6.749 10.16 10.122.074.075.14.162.228.218 1.345.868 2.697 1.724 4.038 2.597.664.433 1.309.894 1.962 1.342l.152-.134c-.17-.34-.264-.755-.519-1.011a3568.144 3568.144 0 0 0-13.58-13.536c-.145-.144-.413-.273-.6-.246-.65.09-1.289.253-1.986.4M16.28 11.18c.064.124.084.207.135.258 4.23 4.22 8.462 8.438 12.703 12.648.13.13.382.261.535.224.622-.153 1.229-.371 1.863-.572-.083-.14-.102-.192-.138-.228-4.175-4.163-8.35-8.327-12.535-12.479-.146-.144-.414-.274-.602-.248-.65.091-1.289.255-1.96.397m11.91 13.516c-.107-.151-.153-.242-.221-.31-4.21-4.196-8.42-8.391-12.634-12.582-.123-.123-.312-.294-.446-.275-.708.101-1.408.257-2.257.422 4.48 4.464 8.817 8.789 13.164 13.103.127.127.383.24.541.203.606-.146 1.197-.356 1.852-.56M9.64 12.677c.159.343.244.792.51 1.06 4.105 4.126 8.232 8.23 12.365 12.328.14.14.417.265.592.226.612-.138 1.207-.351 1.808-.536l.172-.249c-.248-.155-.538-.27-.74-.472-3.932-3.925-7.887-7.827-11.75-11.818-.859-.886-1.633-1.199-2.739-.727-.023.01-.04.033-.219.188m10.023-2.152c.17.208.229.295.302.367 4.305 4.261 8.594 8.538 12.936 12.761.594.578 1.45.887 2.36 1.424-.115-.78.655-1.245.013-1.88-4.3-4.266-8.586-8.546-12.886-12.812-.15-.148-.412-.296-.599-.271-.673.088-1.336.251-2.126.411m30.642 13.59c-1.099-.776-2.034-1.46-3.001-2.095-.178-.117-.508-.1-.735-.034-2.461.712-4.92 1.433-7.367 2.19a1.218 1.218 0 0 0-.682.632c-.522 1.322-.988 2.666-1.457 4.008-.063.181-.123.446-.039.581.391.62.834 1.209 1.297 1.864 1.365-.932 2.087.682 3.223 1.07-.074-.415-.277-.832-.186-1.168.337-1.235.812-2.433 1.152-3.667.19-.688.537-1.059 1.226-1.269 2.146-.653 4.273-1.368 6.57-2.112M9.18 41.002c.231-.112.4-.18.556-.27 1.53-.893 1.51-.393 1.135-2.326-1.024-5.281-2.055-10.561-3.087-15.84-.51-2.608-1.025-5.215-1.56-7.932-.601.54-1.104 1.042-1.66 1.477-.503.392-.606.81-.47 1.433 1.167 5.332 2.294 10.673 3.443 16.008.53 2.466 1.086 4.926 1.643 7.45m39.62-4.354c-.132-1.066-.419-1.941-.298-2.756.18-1.212.609-2.396 1.016-3.562.119-.339.476-.702.812-.838.878-.356 1.805-.591 2.711-.879 1.7-.539 3.398-1.08 5.308-1.689-1.124-.748-2.096-1.361-3.03-2.03-.427-.306-.801-.36-1.305-.197-2.939.951-5.879 1.903-8.842 2.774-.817.24-1.243.621-1.388 1.446-.141.797-.658 1.62-.536 2.353.26 1.563.827 3.076 1.307 4.745 1.591-1.013 3.004-.814 4.245.633m9.11 9.817c-.027-.166-.03-.219-.045-.268-.547-1.843-.965-3.737-1.674-5.517-1.03-2.584-1.118-5.09.003-7.635.01-.024.012-.051.017-.077.109-.573.422-.916 1.015-1.07.817-.214 1.613-.504 2.418-.762l4.395-1.415c-.663-.554-1.252-.996-1.779-1.502-.361-.347-.7-.356-1.138-.21-2.63.877-5.234 1.86-7.912 2.557-1.582.411-2.501 1.133-2.672 2.749-.057.534-.295 1.117-.157 1.594 1.138 3.946 2.344 7.872 3.53 11.804.103.342.209.683.326 1.068l3.674-1.316M36.124 31.93c.055-.09.11-.18.167-.269-.353-.38-.655-.83-1.069-1.124a46.031 46.031 0 0 0-3.195-2.07c-.292-.173-.753-.251-1.071-.157a259.82 259.82 0 0 0-7.12 2.22c-.307.1-.627.383-.791.667a89.002 89.002 0 0 0-2.113 3.897 1.986 1.986 0 0 0-.21 1.042c.209 2.126.58 4.244.662 6.374.07 1.802.759 3.014 2.317 3.92 1.19.693 2.236 1.63 3.507 2.578-.396-2.208-.642-4.23-1.14-6.19-.588-2.307-.51-4.474.396-6.696.371-.908.803-1.39 1.735-1.666 2.657-.788 5.285-1.677 7.925-2.526m.233 23.582c-.744-2.755-1.306-5.42-2.197-7.97-.903-2.582-.998-5.03.059-7.56.26-.626.547-1.007 1.199-1.202 2.103-.63 4.192-1.303 6.286-1.963.341-.108.676-.24.99-.352-.043-.873-.36-1.466-1.085-1.875a15.259 15.259 0 0 1-1.9-1.294c-.442-.345-.841-.403-1.38-.23-2.92.94-5.84 1.881-8.788 2.731-.9.26-1.41.665-1.548 1.596-.145.975-.643 1.976-.512 2.898.463 3.261 1.115 6.497 1.74 9.733.07.362.357.764.662.984 1.906 1.382 3.846 2.718 5.776 4.066.184.13.381.24.698.438m11.016 13.823c.314.169.56.312.816.435 2.164 1.048 4.4 1.971 6.473 3.176 1.653.96 3.14 1.08 4.798.185.42-.227.643-.444.712-.914.232-1.564.527-3.119.753-4.684.31-2.139 1.065-4.287.026-6.423-.15-.308-.441-.647-.746-.761-1.063-.396-2.219-.58-3.233-1.064-1.723-.824-3.286-.698-4.785.411-.399.296-.818.657-1.036 1.085-.622 1.22-1.154 2.486-1.704 3.74-.695 1.588-1.372 3.183-2.074 4.814m27.81-26.577c-.077-.29-.122-.492-.184-.687-.681-2.162-1.51-4.29-2.009-6.494-.518-2.294-1.655-3.945-3.76-5-.467-.235-.817-.319-1.309-.156-2.635.874-5.25 1.83-7.933 2.525-1.546.4-2.385 1.094-2.67 2.677-.153.85-.246 1.605.018 2.446.872 2.765 1.682 5.55 2.517 8.326.126.417.256.833.397 1.292l14.934-4.929m-37.27 12.442l14.992-5.012c0-.148.012-.202-.001-.248-.704-2.402-1.564-4.77-2.07-7.213-.492-2.367-1.607-4.093-3.798-5.12-.024-.012-.04-.044-.063-.048-.342-.053-.72-.226-1.02-.136a551.573 551.573 0 0 0-9.614 2.987c-.265.085-.536.388-.654.656-.784 1.777-.938 3.584-.142 5.41.073.168.101.355.15.533l2.22 8.19M76.08 44.287c-.35.11-.6.186-.848.268-12.748 4.234-25.498 8.464-38.241 12.714-.757.253-1.32.164-1.968-.324-6.446-4.852-12.916-9.672-19.38-14.499-.2-.148-.412-.28-.686-.464-.03.214-.056.312-.056.41-.002 3.274-.015 6.547.02 9.82.003.3.244.691.496.883 6.799 5.174 13.616 10.326 20.42 15.493.372.283.685.372 1.146.214 2.752-.94 5.52-1.834 8.268-2.786.32-.11.661-.43.8-.74.976-2.163 1.87-4.363 2.866-6.517.224-.483.676-.946 1.141-1.218a34.664 34.664 0 0 1 3.603-1.833c.437-.191 1.03-.22 1.499-.106.972.238 1.922.588 2.854.958.56.221.914.155 1.375-.279 4.076-3.84 9.969-3.04 12.525-.681 1.201 1.108 2.153 1.15 3.419.523.094-.047.232-.04.293-.108.168-.189.433-.403.435-.608.026-3.668.019-7.336.019-11.12m-2.844 16.427c-2.878.963-5.639 1.869-8.38 2.833-.247.087-.47.527-.523.834a661.695 661.695 0 0 0-1.58 9.603c-.115.738-.479 1.193-1.174 1.438-1.422.5-2.83 1.043-4.26 1.514a1.553 1.553 0 0 1-1.05-.057c-3.799-1.801-7.588-3.626-11.364-5.474-.379-.186-.662-.568-1.07-.93-2.25.737-4.617 1.483-6.961 2.296-.925.321-1.665.184-2.434-.403a8879.249 8879.249 0 0 0-22.366-17.01c-.734-.556-1.093-1.212-1.077-2.152.039-2.402.013-4.805.013-7.208v-.846c-.97.224-1.841.43-2.715.625-1.184.266-2.096-.292-2.362-1.481-1.117-4.992-2.25-9.98-3.323-14.981-.884-4.126-1.678-8.27-2.544-12.399-.209-.995.071-1.729.823-2.386 1.753-1.532 3.454-3.124 5.224-4.636.417-.357 1-.604 1.546-.717C22.196 6.162 36.737 3.173 51.276.178c1.27-.261 2.125.27 2.396 1.542 1.426 6.706 2.836 13.415 4.277 20.118.067.311.33.63.588.84.364.297.837.46 1.215.744.833.627 1.682.906 2.71.46.211-.091.621.037.825.203a58.07 58.07 0 0 1 2.758 2.391c.39.36.77.555 1.272.311 1.35-.656 2.47-.336 3.425.765.137.158.308.297.487.406 2.223 1.348 3.44 3.333 4.037 5.842.455 1.917 1.165 3.778 1.828 5.64.151.423.535.797.887 1.108.33.293.861.394 1.123.722.355.445.753 1.024.76 1.55.057 4.752.038 9.504.03 14.257-.001.985-.459 1.605-1.434 1.956-1.14.411-2.293.791-3.384 1.165.182 1.221.337 2.389.546 3.547.04.225.246.477.447.607 1.787 1.153 2.443 2.753 2.118 4.842-.124.8-.01 1.634-.024 2.453-.012.787-.324 1.137-1.09 1.147-1.696.02-3.393.016-5.089 0-.662-.005-1.038-.363-1.041-1.038-.008-1.637-.032-3.275.02-4.91.01-.344.249-.747.504-1.003.464-.465.983-.9 1.545-1.237.669-.4.762-.935.633-1.609-.141-.74-.266-1.484-.408-2.284" mask="url(#b)"/>
        </g>
        <path fill="#C7B57A" d="M51.632 52.022c.128.364.342.712.365 1.095.035.597-.23.997-.551.854-.187-.084-.459-.574-.446-.843.02-.394.26-.754.407-1.128l.225.022M74.667 45.022c.12.364.369.781.329 1.079-.048.353-.343.604-.53.899-.167-.33-.451-.646-.466-.996-.013-.315.27-.668.422-1.004l.245.022M67 72.518c-.587.244-.942.506-1.233.48-.308-.027-.774-.333-.767-.51.007-.178.495-.469.805-.487.292-.017.627.256 1.195.517M44.503 48c.245.562.514.91.496 1.215-.018.305-.323.786-.501.785-.178 0-.48-.486-.497-.79-.017-.306.254-.651.502-1.21M38.99 43.631c-.36.134-.75.394-1.074.367-.338-.027-.613-.33-.916-.512.316-.173.613-.465.955-.485.324-.019.695.248 1.045.389l-.01.241M68 42.607c-.36.132-.693.333-1.088.38-.59.07-1.028-.157-.885-.469.097-.21.536-.49.88-.516.322-.025.72.242 1.084.38l.009.225M61 39.472c-.576.268-.915.545-1.205.527-.309-.02-.778-.312-.795-.499-.014-.168.462-.471.77-.498.29-.026.645.232 1.23.47M53.594 35c.146.342.423.705.405 1.019-.02.35-.308.656-.48.981-.184-.296-.484-.56-.516-.898-.031-.32.22-.718.347-1.082l.244-.02"/>
    </g>
</svg>
