<svg xmlns="http://www.w3.org/2000/svg" xmlns:xlink="http://www.w3.org/1999/xlink" width="100" height="100" viewBox="0 0 100 100">
    <defs>
        <path id="a" d="M0 .214h88.963v37.023H0z"/>
        <path id="c" d="M.153.16h71.07v2.893H.153z"/>
    </defs>
    <g fill="none" fill-rule="evenodd">
        <g transform="translate(5.5 41.032)">
            <mask id="b" fill="#fff">
                <use xlink:href="#a"/>
            </mask>
            <path fill="#C7B57A" d="M35.575 26.46v-1.116c-.008-3.444.052-6.89-.053-10.33-.052-1.709-1.295-2.742-3.036-2.808-1.094-.042-2.191-.013-3.287-.012-2.49.004-3.55 1.052-3.569 3.583-.02 2.66-.005 5.322-.005 7.983v2.7h9.95zm23.116 2.635c-.043-.018.054.056.151.056 6.61-.007 13.222.091 19.828-.072 4.206-.104 7.336-3.665 7.465-8.028.133-4.481-2.723-8.186-6.95-8.597-2.946-.286-5.935-.167-8.904-.151-.292.002-.721.506-.848.862-1.19 3.336-2.717 6.51-4.915 9.283-1.83 2.31-3.881 4.443-5.827 6.647zM2.974 3.099c.156 9.74 5.545 21.723 17.532 27.612 12.348 6.067 24.384 5.126 35.417-3.22 7.976-6.032 11.873-14.41 12.553-24.356H32.088v6.147c4.26.613 6.305 2.975 6.306 7.21 0 3.325.007 6.65-.003 9.975-.005 1.797-1.045 2.855-2.817 2.86-3.325.012-6.65.012-9.976 0-1.75-.005-2.777-1.006-2.786-2.758-.02-3.677-.008-7.354-.003-11.032.003-2.022.835-3.709 2.462-4.821 1.116-.763 2.482-1.16 3.862-1.778v-5.84H2.973zM70.66 9.442c2.287 0 4.587-.022 6.886.004 5.383.063 9.987 3.784 11.167 8.997 1.45 6.406-3.609 13.235-10.196 13.47-5.47.194-10.953.061-16.43.073-.391 0-.784.023-1.174-.004-3.946-.268-7.516.546-11.235 2.215C29.221 43.377 5.295 30.855.843 8.852.38 6.565.249 4.209.012 1.88-.092.865.5.263 1.518.222c.429-.018.86 0 1.29 0 22.184 0 44.367-.001 66.55-.003 1.608 0 2.02.377 1.914 2.018-.152 2.336-.391 4.665-.612 7.205z" mask="url(#b)"/>
        </g>
        <g transform="translate(5.5 83.771)">
            <mask id="d" fill="#fff">
                <use xlink:href="#c"/>
            </mask>
            <path fill="#C7B57A" d="M35.71 3.017c-11.109 0-22.217 0-33.327-.003-.428 0-.99.124-1.255-.095-.45-.373-.975-.972-.975-1.475C.154 1.033.845.58 1.296.234 1.47.1 1.827.199 2.1.199h67.123c.274 0 .636-.104.805.03.47.374 1.17.833 1.193 1.287.023.468-.582 1.049-1.04 1.425-.24.197-.754.074-1.144.074-11.11.002-22.218.002-33.327.002" mask="url(#d)"/>
        </g>
        <path fill="#C7B57A" d="M53.234 13.799c-.218.597-.329.927-.457 1.25-1.17 2.933-1.307 5.704.42 8.612 1.96 3.304 1.3 6.784-.277 10.104-.379.799-1.157.968-1.902.572-.692-.367-.874-1-.608-1.806.413-1.25.835-2.516 1.055-3.809.248-1.462-.13-2.855-.929-4.137-2.284-3.664-1.738-7.396-.096-11.08.192-.431 1.062-.81 1.583-.77.443.035.836.71 1.21 1.064M41.512 34.505c-1.38.024-1.947-.936-1.562-2.068.362-1.066.75-2.133.986-3.23.342-1.59.042-3.125-.83-4.497-2.326-3.654-1.81-7.362-.263-11.092.341-.823.98-1.251 1.878-.866.888.382.979 1.117.707 1.966-.331 1.037-.707 2.067-.938 3.127-.405 1.869-.074 3.618.943 5.275 2.164 3.524 1.646 7.095-.007 10.623-.183.389-.723.61-.914.762M31 34.507c-1.395.007-1.905-.938-1.548-2.092.411-1.332.975-2.691.996-4.046.019-1.258-.337-2.672-.968-3.761-2.167-3.742-1.657-7.418-.085-11.125.325-.767 1.017-1.113 1.842-.719.854.407 1.028 1.118.669 1.967-.772 1.82-1.353 3.693-.97 5.684.172.899.497 1.818.965 2.601 2.125 3.554 1.7 7.096.051 10.634-.197.421-.746.679-.952.857"/>
    </g>
</svg>
